<svg width="49" height="16" viewBox="0 0 49 16" fill="none" xmlns="http://www.w3.org/2000/svg">
<path d="M12.75 10.699V11H11.028V10.699L11.567 10.58L13.233 6.121L13.814 6.1L15.389 10.58L15.928 10.699V11H14.108V10.699L14.752 10.573L14.437 9.621H12.442L12.092 10.58L12.75 10.699ZM12.575 9.201H14.311L13.485 6.646L12.575 9.201ZM17.1982 7.304H17.8982C18.3462 7.304 18.6868 7.374 18.9202 7.514C19.1582 7.64933 19.2772 7.87333 19.2772 8.186C19.2772 8.43333 19.2025 8.627 19.0532 8.767C18.9038 8.90233 18.6822 8.99567 18.3882 9.047C18.7148 9.07967 18.9715 9.173 19.1582 9.327C19.3495 9.47633 19.4452 9.70033 19.4452 9.999C19.4452 10.335 19.3145 10.587 19.0532 10.755C18.7965 10.9183 18.3928 11 17.8422 11H16.0922V10.699L16.6382 10.58V7.738L16.0922 7.626V7.325L17.1982 7.304ZM17.7862 7.689H17.1982V8.914H17.6112C18.0078 8.914 18.2902 8.86033 18.4582 8.753C18.6308 8.64567 18.7172 8.48467 18.7172 8.27C18.7172 8.06 18.6402 7.91067 18.4862 7.822C18.3322 7.73333 18.0988 7.689 17.7862 7.689ZM17.7792 10.608C18.1572 10.608 18.4302 10.5567 18.5982 10.454C18.7708 10.3513 18.8572 10.181 18.8572 9.943C18.8572 9.71433 18.7802 9.53933 18.6262 9.418C18.4768 9.29667 18.2412 9.236 17.9192 9.236H17.1982V10.608H17.7792ZM20.4061 11V10.699L21.0571 10.594V7.731H20.1051L20.0001 8.382H19.6501V7.304H23.0241V8.382H22.6741L22.5691 7.731H21.6171V10.587L22.2821 10.699V11H20.4061ZM25.0346 7.241C25.5432 7.241 25.9446 7.402 26.2386 7.724C26.5326 8.046 26.6796 8.501 26.6796 9.089C26.6796 9.49033 26.6096 9.838 26.4696 10.132C26.3296 10.426 26.1266 10.6547 25.8606 10.818C25.5992 10.9813 25.2842 11.063 24.9156 11.063C24.4116 11.063 24.0172 10.9067 23.7326 10.594C23.4479 10.2767 23.3056 9.82167 23.3056 9.229C23.3056 8.823 23.3732 8.47067 23.5086 8.172C23.6486 7.87333 23.8469 7.64467 24.1036 7.486C24.3649 7.32267 24.6752 7.241 25.0346 7.241ZM25.0066 7.654C24.6472 7.654 24.3719 7.78933 24.1806 8.06C23.9892 8.33067 23.8936 8.711 23.8936 9.201C23.8936 9.68167 23.9846 10.0433 24.1666 10.286C24.3486 10.5287 24.6099 10.65 24.9506 10.65C25.3239 10.65 25.6062 10.5147 25.7976 10.244C25.9936 9.97333 26.0916 9.59767 26.0916 9.117C26.0916 8.641 25.9959 8.27933 25.8046 8.032C25.6179 7.78 25.3519 7.654 25.0066 7.654ZM27.1919 12.61V12.309L27.7379 12.183V7.745L27.1919 7.626V7.325L28.1719 7.276L28.2349 7.794C28.6456 7.42533 29.0539 7.241 29.4599 7.241C29.7213 7.241 29.9546 7.31333 30.1599 7.458C30.3699 7.598 30.5356 7.80567 30.6569 8.081C30.7783 8.35633 30.8389 8.69233 30.8389 9.089C30.8389 9.73767 30.6756 10.23 30.3489 10.566C30.0269 10.902 29.5976 11.07 29.0609 11.07C28.9396 11.07 28.8159 11.0607 28.6899 11.042C28.5639 11.0233 28.4333 10.9977 28.2979 10.965V12.183L28.9419 12.309V12.61H27.1919ZM28.9979 10.65C29.4086 10.65 29.7213 10.5193 29.9359 10.258C30.1506 9.992 30.2579 9.621 30.2579 9.145C30.2579 8.683 30.1623 8.32133 29.9709 8.06C29.7843 7.79867 29.5486 7.668 29.2639 7.668C29.1146 7.668 28.9559 7.70533 28.7879 7.78C28.6246 7.85467 28.4613 7.969 28.2979 8.123V10.538C28.5499 10.6127 28.7833 10.65 28.9979 10.65ZM36.4859 10.699V11H34.8269V10.699L35.3799 10.58V7.731L34.8269 7.619V7.325L36.4859 7.283V7.577L35.9399 7.703V10.58L36.4859 10.699ZM31.4389 11V10.699L31.9849 10.58V7.731L31.4389 7.619V7.325L33.1749 7.283V7.577L32.5449 7.71V8.669H33.3079C33.7279 8.669 34.0499 8.76467 34.2739 8.956C34.4979 9.14733 34.6099 9.42967 34.6099 9.803C34.6099 10.181 34.4839 10.475 34.2319 10.685C33.9799 10.895 33.5715 11 33.0069 11H31.4389ZM33.1749 9.061H32.5449V10.608H33.0069C33.3615 10.608 33.6205 10.5427 33.7839 10.412C33.9472 10.2767 34.0289 10.0783 34.0289 9.817C34.0289 9.313 33.7442 9.061 33.1749 9.061Z" fill="white"/>
<rect width="49" height="16" rx="8" fill="#DBDBDB" fill-opacity="0.55"/>
</svg>
