<svg width="81" height="17" viewBox="0 0 81 17" fill="none" xmlns="http://www.w3.org/2000/svg">
<rect x="0.5" y="0.5" width="80" height="16" rx="8" fill="#B30000" fill-opacity="0.94" stroke="#610000"/>
<path d="M10.7388 10.566V11H8.94678V10.566L9.40178 10.433L11.0258 6.1L11.9008 6.072L13.4338 10.433L13.8818 10.566V11H11.9358V10.566L12.4678 10.426L12.2298 9.656H10.4588L10.1858 10.433L10.7388 10.566ZM10.6478 9.054H12.0548L11.3968 6.87L10.6478 9.054ZM15.3813 7.276H15.9763C16.429 7.276 16.7836 7.34367 17.0403 7.479C17.297 7.60967 17.4253 7.84533 17.4253 8.186C17.4253 8.438 17.3506 8.62933 17.2013 8.76C17.052 8.89067 16.8396 8.98167 16.5643 9.033C16.8676 9.07033 17.1126 9.16133 17.2993 9.306C17.486 9.45067 17.5793 9.67467 17.5793 9.978C17.5793 10.328 17.4416 10.587 17.1663 10.755C16.891 10.9183 16.4756 11 15.9203 11H14.0443V10.566L14.5413 10.433V7.857L14.0443 7.731V7.297L15.3813 7.276ZM15.8013 7.829H15.3813V8.844H15.6823C15.9996 8.844 16.2283 8.802 16.3683 8.718C16.5083 8.634 16.5783 8.49867 16.5783 8.312C16.5783 8.13 16.5153 8.004 16.3893 7.934C16.2633 7.864 16.0673 7.829 15.8013 7.829ZM15.8153 10.433C16.1233 10.433 16.3473 10.3933 16.4873 10.314C16.632 10.23 16.7043 10.083 16.7043 9.873C16.7043 9.68167 16.6436 9.537 16.5223 9.439C16.401 9.33633 16.2096 9.285 15.9483 9.285H15.3813V10.433H15.8153ZM18.5026 11V10.566L19.0976 10.44V7.899H18.3696L18.2506 8.501H17.7326V7.276H21.3026V8.501H20.7916L20.6726 7.899H19.9376V10.44L20.5466 10.566V11H18.5026ZM23.3365 7.199C23.8732 7.199 24.2932 7.36233 24.5965 7.689C24.8998 8.01567 25.0515 8.47533 25.0515 9.068C25.0515 9.48333 24.9768 9.84033 24.8275 10.139C24.6828 10.4377 24.4728 10.6687 24.1975 10.832C23.9268 10.9953 23.6002 11.077 23.2175 11.077C22.6808 11.077 22.2632 10.916 21.9645 10.594C21.6705 10.272 21.5235 9.81 21.5235 9.208C21.5235 8.58733 21.6822 8.09733 21.9995 7.738C22.3215 7.37867 22.7672 7.199 23.3365 7.199ZM23.2945 7.801C22.6972 7.801 22.3985 8.256 22.3985 9.166C22.3985 9.614 22.4708 9.94533 22.6155 10.16C22.7602 10.37 22.9748 10.475 23.2595 10.475C23.5675 10.475 23.7985 10.3583 23.9525 10.125C24.1065 9.89167 24.1835 9.55333 24.1835 9.11C24.1835 8.23733 23.8872 7.801 23.2945 7.801ZM25.4587 12.61V12.176L25.9557 12.029V7.864L25.4587 7.731V7.297L26.6067 7.241L26.6837 7.731C26.889 7.55367 27.0897 7.42067 27.2857 7.332C27.4864 7.24333 27.6894 7.199 27.8947 7.199C28.1607 7.199 28.3964 7.27133 28.6017 7.416C28.8117 7.556 28.975 7.766 29.0917 8.046C29.213 8.32133 29.2737 8.65733 29.2737 9.054C29.2737 9.726 29.1057 10.2323 28.7697 10.573C28.4384 10.909 27.9997 11.077 27.4537 11.077C27.253 11.077 27.0337 11.0513 26.7957 11V12.036L27.3767 12.176V12.61H25.4587ZM27.3487 10.475C27.7034 10.475 27.967 10.356 28.1397 10.118C28.3124 9.88 28.3987 9.55333 28.3987 9.138C28.3987 8.732 28.324 8.41233 28.1747 8.179C28.0254 7.941 27.8247 7.822 27.5727 7.822C27.3254 7.822 27.0664 7.93867 26.7957 8.172V10.398C26.9964 10.4493 27.1807 10.475 27.3487 10.475ZM29.7533 11V10.566L30.2433 10.426V7.871L29.7533 7.731V7.297L31.5103 7.248V7.682L31.0483 7.836V9.558L32.7073 7.983V7.85L32.2383 7.731V7.297L34.0023 7.248V7.682L33.5053 7.836V10.426L34.0023 10.566V11H32.2383V10.566L32.7073 10.44V8.662L31.0483 10.286V10.447L31.5103 10.566V11H29.7533ZM35.6958 11.077C35.4718 11.077 35.2478 11.0513 35.0238 11C34.8044 10.9533 34.6014 10.881 34.4148 10.783L34.5828 10.251C34.7508 10.335 34.9234 10.4003 35.1008 10.447C35.2828 10.489 35.4601 10.51 35.6328 10.51C35.8661 10.51 36.0691 10.4633 36.2418 10.37C36.4144 10.272 36.5008 10.1157 36.5008 9.901C36.5008 9.733 36.4378 9.59533 36.3118 9.488C36.1858 9.38067 35.9688 9.327 35.6608 9.327H35.1918V8.823H35.6468C35.9268 8.823 36.1298 8.77633 36.2558 8.683C36.3864 8.585 36.4518 8.44733 36.4518 8.27C36.4518 8.07867 36.3864 7.94333 36.2558 7.864C36.1251 7.78467 35.9571 7.745 35.7518 7.745C35.6584 7.745 35.5604 7.75433 35.4578 7.773C35.3551 7.787 35.2501 7.80567 35.1427 7.829L35.0658 8.312H34.5408L34.5058 7.416C34.7391 7.35067 34.9724 7.29933 35.2058 7.262C35.4391 7.22 35.6654 7.199 35.8848 7.199C36.1508 7.199 36.3888 7.23167 36.5988 7.297C36.8134 7.36233 36.9814 7.465 37.1028 7.605C37.2288 7.745 37.2918 7.927 37.2918 8.151C37.2918 8.627 37.0048 8.92333 36.4308 9.04C36.7574 9.09133 36.9954 9.194 37.1448 9.348C37.2988 9.502 37.3758 9.698 37.3758 9.936C37.3758 10.1973 37.2964 10.412 37.1378 10.58C36.9791 10.748 36.7714 10.874 36.5148 10.958C36.2581 11.0373 35.9851 11.077 35.6958 11.077ZM37.8334 11V10.566L38.3234 10.426V7.871L37.8334 7.731V7.297L39.5904 7.248V7.682L39.1284 7.836V9.558L40.7874 7.983V7.85L40.3184 7.731V7.297L42.0824 7.248V7.682L41.5854 7.836V10.426L42.0824 10.566V11H40.3184V10.566L40.7874 10.44V8.662L39.1284 10.286V10.447L39.5904 10.566V11H37.8334ZM42.4528 12.61V12.176L42.9498 12.029V7.864L42.4528 7.731V7.297L43.6008 7.241L43.6778 7.731C43.8832 7.55367 44.0838 7.42067 44.2798 7.332C44.4805 7.24333 44.6835 7.199 44.8888 7.199C45.1548 7.199 45.3905 7.27133 45.5958 7.416C45.8058 7.556 45.9692 7.766 46.0858 8.046C46.2072 8.32133 46.2678 8.65733 46.2678 9.054C46.2678 9.726 46.0998 10.2323 45.7638 10.573C45.4325 10.909 44.9938 11.077 44.4478 11.077C44.2472 11.077 44.0278 11.0513 43.7898 11V12.036L44.3708 12.176V12.61H42.4528ZM44.3428 10.475C44.6975 10.475 44.9612 10.356 45.1338 10.118C45.3065 9.88 45.3928 9.55333 45.3928 9.138C45.3928 8.732 45.3182 8.41233 45.1688 8.179C45.0195 7.941 44.8188 7.822 44.5668 7.822C44.3195 7.822 44.0605 7.93867 43.7898 8.172V10.398C43.9905 10.4493 44.1748 10.475 44.3428 10.475ZM48.5884 7.199C49.1251 7.199 49.5451 7.36233 49.8484 7.689C50.1518 8.01567 50.3034 8.47533 50.3034 9.068C50.3034 9.48333 50.2288 9.84033 50.0794 10.139C49.9348 10.4377 49.7248 10.6687 49.4494 10.832C49.1788 10.9953 48.8521 11.077 48.4694 11.077C47.9328 11.077 47.5151 10.916 47.2164 10.594C46.9224 10.272 46.7754 9.81 46.7754 9.208C46.7754 8.58733 46.9341 8.09733 47.2514 7.738C47.5734 7.37867 48.0191 7.199 48.5884 7.199ZM48.5464 7.801C47.9491 7.801 47.6504 8.256 47.6504 9.166C47.6504 9.614 47.7228 9.94533 47.8674 10.16C48.0121 10.37 48.2268 10.475 48.5114 10.475C48.8194 10.475 49.0504 10.3583 49.2044 10.125C49.3584 9.89167 49.4354 9.55333 49.4354 9.11C49.4354 8.23733 49.1391 7.801 48.5464 7.801ZM52.1176 7.276H52.7126C53.1653 7.276 53.52 7.34367 53.7766 7.479C54.0333 7.60967 54.1616 7.84533 54.1616 8.186C54.1616 8.438 54.087 8.62933 53.9376 8.76C53.7883 8.89067 53.576 8.98167 53.3006 9.033C53.604 9.07033 53.849 9.16133 54.0356 9.306C54.2223 9.45067 54.3156 9.67467 54.3156 9.978C54.3156 10.328 54.178 10.587 53.9026 10.755C53.6273 10.9183 53.212 11 52.6566 11H50.7806V10.566L51.2776 10.433V7.857L50.7806 7.731V7.297L52.1176 7.276ZM52.5376 7.829H52.1176V8.844H52.4186C52.736 8.844 52.9646 8.802 53.1046 8.718C53.2446 8.634 53.3146 8.49867 53.3146 8.312C53.3146 8.13 53.2516 8.004 53.1256 7.934C52.9996 7.864 52.8036 7.829 52.5376 7.829ZM52.5516 10.433C52.8596 10.433 53.0836 10.3933 53.2236 10.314C53.3683 10.23 53.4406 10.083 53.4406 9.873C53.4406 9.68167 53.38 9.537 53.2586 9.439C53.1373 9.33633 52.946 9.285 52.6846 9.285H52.1176V10.433H52.5516ZM57.2222 11.049L57.1172 10.454C56.9305 10.664 56.7275 10.8203 56.5082 10.923C56.2888 11.0257 56.0742 11.077 55.8642 11.077C55.5748 11.077 55.3322 10.986 55.1362 10.804C54.9448 10.6173 54.8492 10.3467 54.8492 9.992C54.8492 9.59067 54.9752 9.313 55.2272 9.159C55.4838 9.00033 55.8385 8.921 56.2912 8.921H57.0332V8.466C57.0332 8.23733 56.9748 8.074 56.8582 7.976C56.7415 7.87333 56.5758 7.822 56.3612 7.822C56.1745 7.822 55.9622 7.857 55.7242 7.927L55.6472 8.445H55.1082L55.0522 7.465C55.6588 7.28767 56.1698 7.199 56.5852 7.199C56.9958 7.199 57.3132 7.29 57.5372 7.472C57.7612 7.64933 57.8732 7.92933 57.8732 8.312V10.419L58.3702 10.559V10.993L57.2222 11.049ZM55.6962 9.915C55.6962 10.1063 55.7405 10.2463 55.8292 10.335C55.9178 10.419 56.0322 10.461 56.1722 10.461C56.2982 10.461 56.4358 10.4237 56.5852 10.349C56.7392 10.2743 56.8885 10.1693 57.0332 10.034V9.404H56.4242C56.1488 9.404 55.9575 9.446 55.8502 9.53C55.7475 9.614 55.6962 9.74233 55.6962 9.915ZM59.0739 11V10.566L59.6689 10.44V7.899H58.9409L58.8219 8.501H58.3039V7.276H61.8739V8.501H61.3629L61.2439 7.899H60.5089V10.44L61.1179 10.566V11H59.0739ZM62.1351 11V10.566L62.6251 10.433V7.857L62.1351 7.731V7.297L64.0531 7.248V7.682L63.4651 7.822V8.564H64.1301C64.5688 8.564 64.9071 8.662 65.1451 8.858C65.3878 9.054 65.5091 9.35267 65.5091 9.754C65.5091 10.1507 65.3761 10.4587 65.1101 10.678C64.8441 10.8927 64.4171 11 63.8291 11H62.1351ZM63.9411 9.131H63.4651V10.433H63.8151C64.1138 10.433 64.3285 10.3793 64.4591 10.272C64.5945 10.16 64.6621 9.992 64.6621 9.768C64.6621 9.34333 64.4218 9.131 63.9411 9.131ZM67.4794 11.077C67.162 11.077 66.8774 11.0023 66.6254 10.853C66.3734 10.7037 66.175 10.4867 66.0304 10.202C65.8857 9.91733 65.8134 9.57433 65.8134 9.173C65.8134 8.81367 65.8647 8.51033 65.9674 8.263C66.07 8.011 66.2077 7.808 66.3804 7.654C66.5577 7.49533 66.756 7.381 66.9754 7.311C67.1994 7.23633 67.428 7.199 67.6614 7.199C67.8714 7.199 68.0884 7.227 68.3124 7.283C68.5364 7.339 68.723 7.40433 68.8724 7.479L68.8444 8.452H68.2984L68.2074 7.885C68.1234 7.857 68.0324 7.836 67.9344 7.822C67.841 7.808 67.7547 7.801 67.6754 7.801C67.3487 7.801 67.1014 7.92233 66.9334 8.165C66.77 8.403 66.6884 8.72267 66.6884 9.124C66.6884 9.558 66.777 9.88933 66.9544 10.118C67.1364 10.342 67.3744 10.454 67.6684 10.454C67.981 10.454 68.331 10.3257 68.7184 10.069L68.9984 10.503C68.7464 10.699 68.492 10.8437 68.2354 10.937C67.9787 11.0303 67.7267 11.077 67.4794 11.077ZM69.152 11V10.566L69.621 10.447L69.873 9.866C69.9197 9.74467 69.985 9.65133 70.069 9.586C70.1577 9.516 70.2627 9.46933 70.384 9.446C69.838 9.33867 69.565 9.00267 69.565 8.438C69.565 8.06467 69.684 7.77767 69.922 7.577C70.16 7.37633 70.5007 7.276 70.944 7.276H72.855V7.71L72.358 7.85V10.433L72.855 10.566V11H71.063V10.566L71.518 10.447V9.586H71.175C71.0304 9.586 70.9137 9.61633 70.825 9.677C70.7364 9.73767 70.664 9.84267 70.608 9.992L70.237 11H69.152ZM71.133 9.075H71.518V7.822H71.056C70.86 7.822 70.699 7.86867 70.573 7.962C70.4517 8.05533 70.391 8.214 70.391 8.438C70.391 8.676 70.4517 8.84167 70.573 8.935C70.699 9.02833 70.8857 9.075 71.133 9.075Z" fill="white" fill-opacity="0.78"/>
</svg>
