<svg width="49" height="16" viewBox="0 0 49 16" fill="none" xmlns="http://www.w3.org/2000/svg">
<path d="M11.154 11V10.699L11.756 10.573L13.212 8.487L12.022 6.541L11.448 6.429V6.128L13.128 6.135V6.443L12.575 6.527L13.611 8.291H14.318V6.548L13.723 6.45V6.149L15.417 6.114V6.415L14.857 6.548V8.291H15.522L16.579 6.534L16.005 6.45V6.149L17.692 6.114V6.415L17.097 6.548L15.921 8.459L17.412 10.573L17.986 10.699V11H16.229V10.699L16.775 10.573L15.494 8.69H14.857V10.566L15.417 10.699V11H13.744V10.699L14.318 10.573V8.69H13.646L12.365 10.573L12.904 10.699V11H11.154ZM20.5451 11.035L20.4681 10.426C20.2674 10.636 20.0504 10.7947 19.8171 10.902C19.5884 11.0093 19.3668 11.063 19.1521 11.063C18.8814 11.063 18.6528 10.9767 18.4661 10.804C18.2794 10.6267 18.1861 10.363 18.1861 10.013C18.1861 9.747 18.2421 9.53933 18.3541 9.39C18.4708 9.236 18.6318 9.12867 18.8371 9.068C19.0424 9.00733 19.2828 8.977 19.5581 8.977H20.4121V8.382C20.4121 8.13 20.3444 7.948 20.2091 7.836C20.0738 7.724 19.8871 7.668 19.6491 7.668C19.4158 7.668 19.1568 7.71467 18.8721 7.808L18.8161 8.375H18.4381L18.3821 7.507C18.6481 7.41833 18.8978 7.353 19.1311 7.311C19.3644 7.26433 19.5814 7.241 19.7821 7.241C20.1508 7.241 20.4401 7.325 20.6501 7.493C20.8648 7.65633 20.9721 7.92 20.9721 8.284V10.58L21.5251 10.685V10.993L20.5451 11.035ZM18.7531 9.971C18.7531 10.1997 18.8068 10.3677 18.9141 10.475C19.0261 10.5823 19.1661 10.636 19.3341 10.636C19.4928 10.636 19.6678 10.5893 19.8591 10.496C20.0504 10.4027 20.2348 10.2743 20.4121 10.111V9.348H19.6421C19.3108 9.348 19.0798 9.39933 18.9491 9.502C18.8184 9.6 18.7531 9.75633 18.7531 9.971ZM21.9231 11V10.699L22.4691 10.573V7.738L21.9231 7.619V7.325L23.5611 7.283V7.577L23.0291 7.717V8.858H24.9261V7.724L24.3941 7.619V7.325L26.0391 7.283V7.577L25.4861 7.717V10.573L26.0391 10.699V11H24.3941V10.699L24.9261 10.58V9.278H23.0291V10.58L23.5611 10.699V11H21.9231ZM26.481 12.61V12.309L27.027 12.183V7.745L26.481 7.626V7.325L27.461 7.276L27.524 7.794C27.9347 7.42533 28.343 7.241 28.749 7.241C29.0103 7.241 29.2437 7.31333 29.449 7.458C29.659 7.598 29.8247 7.80567 29.946 8.081C30.0673 8.35633 30.128 8.69233 30.128 9.089C30.128 9.73767 29.9647 10.23 29.638 10.566C29.316 10.902 28.8867 11.07 28.35 11.07C28.2287 11.07 28.105 11.0607 27.979 11.042C27.853 11.0233 27.7223 10.9977 27.587 10.965V12.183L28.231 12.309V12.61H26.481ZM28.287 10.65C28.6977 10.65 29.0103 10.5193 29.225 10.258C29.4397 9.992 29.547 9.621 29.547 9.145C29.547 8.683 29.4513 8.32133 29.26 8.06C29.0733 7.79867 28.8377 7.668 28.553 7.668C28.4037 7.668 28.245 7.70533 28.077 7.78C27.9137 7.85467 27.7503 7.969 27.587 8.123V10.538C27.839 10.6127 28.0723 10.65 28.287 10.65ZM35.7749 10.699V11H34.1159V10.699L34.6689 10.58V7.731L34.1159 7.619V7.325L35.7749 7.283V7.577L35.2289 7.703V10.58L35.7749 10.699ZM30.7279 11V10.699L31.2739 10.58V7.731L30.7279 7.619V7.325L32.4639 7.283V7.577L31.8339 7.71V8.669H32.5969C33.0169 8.669 33.3389 8.76467 33.5629 8.956C33.7869 9.14733 33.8989 9.42967 33.8989 9.803C33.8989 10.181 33.7729 10.475 33.5209 10.685C33.2689 10.895 32.8606 11 32.2959 11H30.7279ZM32.4639 9.061H31.8339V10.608H32.2959C32.6506 10.608 32.9096 10.5427 33.0729 10.412C33.2362 10.2767 33.3179 10.0783 33.3179 9.817C33.3179 9.313 33.0332 9.061 32.4639 9.061Z" fill="white"/>
<rect width="49" height="16" rx="8" fill="#DBDBDB" fill-opacity="0.55"/>
</svg>
