<svg width="49" height="16" viewBox="0 0 49 16" fill="none" xmlns="http://www.w3.org/2000/svg">
<path d="M9.343 11V10.699L9.945 10.573V6.562L9.343 6.45V6.149L11.128 6.114V6.415L10.519 6.555V8.298H13.053V6.555L12.451 6.45V6.149L14.236 6.114V6.415L13.627 6.555V10.573L14.236 10.699V11H12.451V10.699L13.053 10.573V8.725H10.519V10.573L11.128 10.699V11H9.343ZM16.5131 7.241C17.0217 7.241 17.4231 7.402 17.7171 7.724C18.0111 8.046 18.1581 8.501 18.1581 9.089C18.1581 9.49033 18.0881 9.838 17.9481 10.132C17.8081 10.426 17.6051 10.6547 17.3391 10.818C17.0777 10.9813 16.7627 11.063 16.3941 11.063C15.8901 11.063 15.4957 10.9067 15.2111 10.594C14.9264 10.2767 14.7841 9.82167 14.7841 9.229C14.7841 8.823 14.8517 8.47067 14.9871 8.172C15.1271 7.87333 15.3254 7.64467 15.5821 7.486C15.8434 7.32267 16.1537 7.241 16.5131 7.241ZM16.4851 7.654C16.1257 7.654 15.8504 7.78933 15.6591 8.06C15.4677 8.33067 15.3721 8.711 15.3721 9.201C15.3721 9.68167 15.4631 10.0433 15.6451 10.286C15.8271 10.5287 16.0884 10.65 16.4291 10.65C16.8024 10.65 17.0847 10.5147 17.2761 10.244C17.4721 9.97333 17.5701 9.59767 17.5701 9.117C17.5701 8.641 17.4744 8.27933 17.2831 8.032C17.0964 7.78 16.8304 7.654 16.4851 7.654ZM19.8534 7.304H20.5534C21.0014 7.304 21.3421 7.374 21.5754 7.514C21.8134 7.64933 21.9324 7.87333 21.9324 8.186C21.9324 8.43333 21.8578 8.627 21.7084 8.767C21.5591 8.90233 21.3374 8.99567 21.0434 9.047C21.3701 9.07967 21.6268 9.173 21.8134 9.327C22.0048 9.47633 22.1004 9.70033 22.1004 9.999C22.1004 10.335 21.9698 10.587 21.7084 10.755C21.4518 10.9183 21.0481 11 20.4974 11H18.7474V10.699L19.2934 10.58V7.738L18.7474 7.626V7.325L19.8534 7.304ZM20.4414 7.689H19.8534V8.914H20.2664C20.6631 8.914 20.9454 8.86033 21.1134 8.753C21.2861 8.64567 21.3724 8.48467 21.3724 8.27C21.3724 8.06 21.2954 7.91067 21.1414 7.822C20.9874 7.73333 20.7541 7.689 20.4414 7.689ZM20.4344 10.608C20.8124 10.608 21.0854 10.5567 21.2534 10.454C21.4261 10.3513 21.5124 10.181 21.5124 9.943C21.5124 9.71433 21.4354 9.53933 21.2814 9.418C21.1321 9.29667 20.8964 9.236 20.5744 9.236H19.8534V10.608H20.4344ZM22.6301 11V10.699L23.1761 10.573V7.738L22.6301 7.619V7.325L24.2471 7.283V7.577L23.7151 7.717V9.901L25.6611 7.871V7.724L25.1221 7.619V7.325L26.7391 7.283V7.577L26.1931 7.717V10.573L26.7391 10.699V11H25.1221V10.699L25.6541 10.58V8.347L23.7151 10.419V10.594L24.2471 10.699V11H22.6301ZM27.258 11V10.699L27.804 10.573V7.738L27.258 7.619V7.325L28.896 7.283V7.577L28.364 7.717V8.858H30.261V7.724L29.729 7.619V7.325L31.374 7.283V7.577L30.821 7.717V10.573L31.374 10.699V11H29.729V10.699L30.261 10.58V9.278H28.364V10.58L28.896 10.699V11H27.258ZM31.886 11V10.699L32.432 10.58V7.724L31.886 7.619V7.325L33.51 7.283V7.577L32.992 7.703V8.865H33.755L34.455 7.696L33.958 7.626V7.325L35.498 7.276V7.577L34.994 7.675L34.196 8.998L35.162 10.594L35.694 10.699V11H34.805L33.776 9.257H32.992V10.573L33.594 10.699V11H31.886ZM35.8781 11V10.699L36.4241 10.573V7.738L35.8781 7.619V7.325L37.4951 7.283V7.577L36.9631 7.717V9.901L38.9091 7.871V7.724L38.3701 7.619V7.325L39.9871 7.283V7.577L39.4411 7.717V10.573L39.9871 10.699V11H38.3701V10.699L38.9021 10.58V8.347L36.9631 10.419V10.594L37.4951 10.699V11H35.8781Z" fill="white"/>
<rect width="49" height="16" rx="8" fill="#DBDBDB" fill-opacity="0.55"/>
</svg>
