<svg width="49" height="16" viewBox="0 0 49 16" fill="none" xmlns="http://www.w3.org/2000/svg">
<path d="M3.343 11V10.699L3.945 10.573V6.562L3.343 6.45V6.149L4.519 6.114H8.117V6.415L7.508 6.555V10.573L8.117 10.699V11H6.332V10.699L6.941 10.573V6.541L4.519 6.548V10.573L5.128 10.699V11H3.343ZM10.3969 7.241C10.9055 7.241 11.3069 7.402 11.6009 7.724C11.8949 8.046 12.0419 8.501 12.0419 9.089C12.0419 9.49033 11.9719 9.838 11.8319 10.132C11.6919 10.426 11.4889 10.6547 11.2229 10.818C10.9615 10.9813 10.6465 11.063 10.2779 11.063C9.77387 11.063 9.37953 10.9067 9.09487 10.594C8.8102 10.2767 8.66787 9.82167 8.66787 9.229C8.66787 8.823 8.73553 8.47067 8.87087 8.172C9.01087 7.87333 9.2092 7.64467 9.46587 7.486C9.7272 7.32267 10.0375 7.241 10.3969 7.241ZM10.3689 7.654C10.0095 7.654 9.7342 7.78933 9.54287 8.06C9.35153 8.33067 9.25587 8.711 9.25587 9.201C9.25587 9.68167 9.34687 10.0433 9.52887 10.286C9.71087 10.5287 9.9722 10.65 10.3129 10.65C10.6862 10.65 10.9685 10.5147 11.1599 10.244C11.3559 9.97333 11.4539 9.59767 11.4539 9.117C11.4539 8.641 11.3582 8.27933 11.1669 8.032C10.9802 7.78 10.7142 7.654 10.3689 7.654ZM12.6242 11V10.699L13.1702 10.573V7.745L12.6242 7.619V7.325L13.6952 7.304H16.7052V7.605L16.1592 7.745V10.573L16.7052 10.699V11H15.0742V10.699L15.5992 10.58V7.731L13.7302 7.724V10.58L14.2552 10.699V11H12.6242ZM17.023 12.638L17.072 12.225C17.128 12.2343 17.1793 12.2413 17.226 12.246C17.2773 12.2507 17.324 12.253 17.366 12.253C17.5853 12.253 17.7626 12.204 17.898 12.106C18.038 12.0127 18.1546 11.8703 18.248 11.679C18.346 11.4923 18.4416 11.259 18.535 10.979L17.275 7.696L16.876 7.626V7.325L18.409 7.276V7.584L17.842 7.682L18.794 10.398L19.718 7.696L19.165 7.626V7.325L20.649 7.276V7.584L20.243 7.675L19.025 11.014C18.913 11.3267 18.794 11.6067 18.668 11.854C18.542 12.106 18.381 12.3043 18.185 12.449C17.9936 12.5983 17.737 12.673 17.415 12.673C17.303 12.673 17.1723 12.6613 17.023 12.638ZM20.7913 11.056C20.6653 11.056 20.5206 11.0327 20.3573 10.986L20.4413 10.531C20.5113 10.545 20.5813 10.552 20.6513 10.552C20.9126 10.552 21.1063 10.44 21.2323 10.216C21.3629 9.992 21.4493 9.67 21.4913 9.25C21.5379 8.82533 21.5659 8.31667 21.5753 7.724L20.9663 7.605V7.304H24.2283V7.605L23.6823 7.731V10.58L24.2283 10.699V11H22.5693V10.699L23.1223 10.58V7.731H22.0163C22.0069 8.42633 21.9673 9.02133 21.8973 9.516C21.8319 10.0107 21.7106 10.391 21.5333 10.657C21.3606 10.923 21.1133 11.056 20.7913 11.056ZM24.5554 11V10.699L25.0804 10.587L25.3814 9.873C25.4374 9.74233 25.5074 9.642 25.5914 9.572C25.6754 9.502 25.7757 9.453 25.8924 9.425C25.6124 9.37833 25.3954 9.27333 25.2414 9.11C25.092 8.94667 25.0174 8.71567 25.0174 8.417C25.0174 8.039 25.1364 7.759 25.3744 7.577C25.617 7.395 25.9414 7.304 26.3474 7.304H28.0974V7.605L27.5514 7.731V10.58L28.0974 10.699V11H26.4664V10.699L26.9914 10.587V9.523H26.5364C26.373 9.523 26.2377 9.558 26.1304 9.628C26.023 9.69333 25.9367 9.81233 25.8714 9.985L25.4724 11H24.5554ZM26.5154 9.166H26.9914V7.682H26.4034C26.1607 7.682 25.96 7.738 25.8014 7.85C25.6474 7.95733 25.5704 8.14633 25.5704 8.417C25.5704 8.69233 25.6474 8.886 25.8014 8.998C25.9554 9.11 26.1934 9.166 26.5154 9.166ZM28.5435 12.61V12.309L29.0895 12.183V7.745L28.5435 7.626V7.325L29.5235 7.276L29.5865 7.794C29.9972 7.42533 30.4055 7.241 30.8115 7.241C31.0728 7.241 31.3062 7.31333 31.5115 7.458C31.7215 7.598 31.8872 7.80567 32.0085 8.081C32.1298 8.35633 32.1905 8.69233 32.1905 9.089C32.1905 9.73767 32.0272 10.23 31.7005 10.566C31.3785 10.902 30.9492 11.07 30.4125 11.07C30.2912 11.07 30.1675 11.0607 30.0415 11.042C29.9155 11.0233 29.7848 10.9977 29.6495 10.965V12.183L30.2935 12.309V12.61H28.5435ZM30.3495 10.65C30.7602 10.65 31.0728 10.5193 31.2875 10.258C31.5022 9.992 31.6095 9.621 31.6095 9.145C31.6095 8.683 31.5138 8.32133 31.3225 8.06C31.1358 7.79867 30.9002 7.668 30.6155 7.668C30.4662 7.668 30.3075 7.70533 30.1395 7.78C29.9762 7.85467 29.8128 7.969 29.6495 8.123V10.538C29.9015 10.6127 30.1348 10.65 30.3495 10.65ZM32.7834 11V10.699L33.3294 10.573V7.738L32.7834 7.619V7.325L34.4214 7.283V7.577L33.8894 7.717V8.858H35.7864V7.724L35.2544 7.619V7.325L36.8994 7.283V7.577L36.3464 7.717V10.573L36.8994 10.699V11H35.2544V10.699L35.7864 10.58V9.278H33.8894V10.58L34.4214 10.699V11H32.7834ZM39.2103 7.241C39.719 7.241 40.1203 7.402 40.4143 7.724C40.7083 8.046 40.8553 8.501 40.8553 9.089C40.8553 9.49033 40.7853 9.838 40.6453 10.132C40.5053 10.426 40.3023 10.6547 40.0363 10.818C39.775 10.9813 39.46 11.063 39.0913 11.063C38.5873 11.063 38.193 10.9067 37.9083 10.594C37.6237 10.2767 37.4813 9.82167 37.4813 9.229C37.4813 8.823 37.549 8.47067 37.6843 8.172C37.8243 7.87333 38.0227 7.64467 38.2793 7.486C38.5407 7.32267 38.851 7.241 39.2103 7.241ZM39.1823 7.654C38.823 7.654 38.5477 7.78933 38.3563 8.06C38.165 8.33067 38.0693 8.711 38.0693 9.201C38.0693 9.68167 38.1603 10.0433 38.3423 10.286C38.5243 10.5287 38.7857 10.65 39.1263 10.65C39.4997 10.65 39.782 10.5147 39.9733 10.244C40.1693 9.97333 40.2673 9.59767 40.2673 9.117C40.2673 8.641 40.1717 8.27933 39.9803 8.032C39.7937 7.78 39.5277 7.654 39.1823 7.654ZM43.1107 11.063C42.798 11.063 42.5204 10.993 42.2777 10.853C42.0397 10.7083 41.853 10.4983 41.7177 10.223C41.5824 9.94767 41.5147 9.60933 41.5147 9.208C41.5147 8.80667 41.5847 8.459 41.7247 8.165C41.8647 7.871 42.0607 7.64467 42.3127 7.486C42.5694 7.32267 42.8727 7.241 43.2227 7.241C43.5494 7.241 43.8177 7.311 44.0277 7.451C44.2424 7.58633 44.401 7.77533 44.5037 8.018C44.611 8.26067 44.6647 8.53833 44.6647 8.851C44.6647 8.90233 44.6624 8.956 44.6577 9.012C44.653 9.06333 44.6484 9.124 44.6437 9.194H42.0957C42.105 9.63267 42.2077 9.98267 42.4037 10.244C42.5997 10.5007 42.8797 10.629 43.2437 10.629C43.4164 10.629 43.6054 10.5963 43.8107 10.531C44.016 10.461 44.2284 10.356 44.4477 10.216L44.6507 10.531C44.3894 10.713 44.128 10.8483 43.8667 10.937C43.6054 11.021 43.3534 11.063 43.1107 11.063ZM43.1807 7.668C42.8727 7.668 42.6277 7.773 42.4457 7.983C42.2684 8.18833 42.1587 8.459 42.1167 8.795H44.0837C44.0884 8.59433 44.0604 8.41 43.9997 8.242C43.939 8.06933 43.841 7.93167 43.7057 7.829C43.575 7.72167 43.4 7.668 43.1807 7.668Z" fill="white"/>
<rect width="49" height="16" rx="8" fill="#DBDBDB" fill-opacity="0.55"/>
</svg>
